<svg xmlns="http://www.w3.org/2000/svg" width="64" height="64" viewBox="0 0 122.88 122.31" fill-rule="evenodd" clip-rule="evenodd">
  <!-- A single path where the inner letters are physically cut out of the circle -->
  <path d="M61.44,0A61.22,61.22,0,1,1,0,61.16,61.22,61.22,0,0,1,61.44,0ZM49.19,47.41H64.72v8h.22c2.17-3.88,7.45-8,15.34-8,16.39,0,19.42,10.2,19.42,23.47V98.94H83.51V74c0-5.71-.12-13.06-8.42-13.06s-9.72,6.21-9.72,12.65v25.4H49.19V47.41ZM40,31.79a8.42,8.42,0,1,1-8.42-8.42A8.43,8.43,0,0,1,40,31.79ZM23.18,47.41H40V98.94H23.18V47.41Z" fill="currentColor"/>
</svg>
